<svg width="35" height="40" viewBox="0 0 35 40" fill="none" xmlns="http://www.w3.org/2000/svg">
<rect width="35" height="40" fill="#1F66FF"/>
<path d="M16.3565 11.0121C16.7182 10.8768 17.1135 10.8591 17.4858 10.9617L17.6435 11.0121L24.0602 13.4183C24.3855 13.5403 24.6695 13.7523 24.879 14.0295C25.0885 14.3067 25.215 14.6377 25.2436 14.984L25.25 15.1353V20.0513C25.25 21.5367 24.8489 22.9946 24.0891 24.2709C23.3294 25.5473 22.2391 26.5949 20.9334 27.3031L20.6896 27.4305L17.6151 28.9678C17.4458 29.0523 17.2609 29.101 17.0719 29.1107C16.883 29.1205 16.694 29.0912 16.5169 29.0246L16.3849 28.9678L13.3104 27.4305C11.9818 26.7662 10.8572 25.7555 10.0553 24.5051C9.25346 23.2547 8.80407 21.811 8.75458 20.3263L8.75 20.0513V15.1353C8.75001 14.788 8.84866 14.4478 9.03447 14.1544C9.22029 13.861 9.48562 13.6264 9.79958 13.4779L9.93983 13.4183L16.3565 11.0121ZM17 12.729L10.5833 15.1353V20.0513C10.5834 21.2018 10.8927 22.331 11.4789 23.3209C12.0651 24.3108 12.9066 25.1248 13.9154 25.6778L14.1308 25.7906L17 27.2252L19.8692 25.7906C20.8983 25.2761 21.7702 24.4944 22.3935 23.5272C23.0169 22.5601 23.3687 21.4431 23.4121 20.2933L23.4167 20.0513V15.1353L17 12.729ZM20.1469 16.9099C20.3119 16.7455 20.5332 16.6501 20.766 16.643C20.9988 16.6359 21.2256 16.7176 21.4003 16.8717C21.5749 17.0257 21.6844 17.2404 21.7065 17.4723C21.7286 17.7041 21.6616 17.9357 21.5192 18.1199L21.4431 18.2061L16.6453 23.0048C16.4705 23.1796 16.2376 23.2841 15.9909 23.2984C15.7442 23.3128 15.5008 23.236 15.3069 23.0828L15.2189 23.0048L13.0152 20.8012C12.8491 20.6366 12.7521 20.4147 12.7442 20.181C12.7363 19.9473 12.818 19.7194 12.9726 19.5439C13.1272 19.3684 13.343 19.2587 13.5759 19.2372C13.8088 19.2156 14.0411 19.2839 14.2252 19.428L14.3114 19.5041L15.9321 21.1248L20.1469 16.9099Z" fill="white"/>
</svg>
