<svg width="16" height="16" viewBox="0 0 16 16" fill="none" xmlns="http://www.w3.org/2000/svg">
<g clip-path="url(#clip0_36_13288)">
<path d="M3.33333 14C2.97971 14 2.64057 13.8595 2.39052 13.6095C2.14048 13.3594 2 13.0203 2 12.6667L2 3.33333C2 2.9797 2.14048 2.64057 2.39053 2.39052C2.64057 2.14047 2.97971 1.99999 3.33333 1.99999L12.6667 1.99999C13.0203 1.99999 13.3594 2.14047 13.6095 2.39052C13.8595 2.64057 14 2.97971 14 3.33333L14 12.6667C14 13.0203 13.8595 13.3594 13.6095 13.6095C13.3594 13.8595 13.0203 14 12.6667 14L9.88 14C9.6 14.7733 8.86667 15.3333 8 15.3333C7.13333 15.3333 6.4 14.7733 6.12 14L3.33333 14ZM8 10.6667L11.3333 7.33333L9.33333 7.33333L9.33333 4.66666L6.66667 4.66666L6.66667 7.33333L4.66667 7.33333L8 10.6667ZM8 14C8.17681 14 8.34638 13.9298 8.4714 13.8047C8.59643 13.6797 8.66667 13.5101 8.66667 13.3333C8.66667 13.1565 8.59643 12.9869 8.4714 12.8619C8.34638 12.7369 8.17681 12.6667 8 12.6667C7.82319 12.6667 7.65362 12.7369 7.5286 12.8619C7.40357 12.9869 7.33333 13.1565 7.33333 13.3333C7.33333 13.5101 7.40357 13.6797 7.5286 13.8047C7.65362 13.9298 7.82319 14 8 14Z" fill="#1F66FF"/>
</g>
<defs>
<clipPath id="clip0_36_13288">
<rect width="16" height="16" fill="white" transform="translate(16 16) rotate(-180)"/>
</clipPath>
</defs>
</svg>
