<svg width="16" height="16" viewBox="0 0 16 16" fill="none" xmlns="http://www.w3.org/2000/svg">
<path d="M12.6667 2C13.0203 2 13.3594 2.14047 13.6095 2.39052C13.8595 2.64057 14 2.97971 14 3.33333V12.6667C14 13.0203 13.8595 13.3594 13.6095 13.6095C13.3594 13.8595 13.0203 14 12.6667 14H3.33333C2.97971 14 2.64057 13.8595 2.39052 13.6095C2.14048 13.3594 2 13.0203 2 12.6667V3.33333C2 2.97971 2.14048 2.64057 2.39052 2.39052C2.64057 2.14047 2.97971 2 3.33333 2H6.12C6.4 1.22666 7.13333 0.666664 8 0.666664C8.86667 0.666664 9.6 1.22666 9.88 2H12.6667ZM8 5.33333L4.66667 8.66666H6.66667V11.3333H9.33333V8.66666H11.3333L8 5.33333ZM8 2C7.82319 2 7.65362 2.07024 7.5286 2.19526C7.40357 2.32028 7.33333 2.48985 7.33333 2.66666C7.33333 2.84348 7.40357 3.01304 7.5286 3.13807C7.65362 3.26309 7.82319 3.33333 8 3.33333C8.17681 3.33333 8.34638 3.26309 8.4714 3.13807C8.59643 3.01304 8.66667 2.84348 8.66667 2.66666C8.66667 2.48985 8.59643 2.32028 8.4714 2.19526C8.34638 2.07024 8.17681 2 8 2Z" fill="#1F66FF"/>
</svg>
