<svg width="80" height="80" viewBox="0 0 61 62" fill="none" xmlns="http://www.w3.org/2000/svg">
<path d="M59.0938 30.746C59.0951 28.7402 58.6174 26.7637 57.7008 24.9834C56.7843 23.2032 55.4559 21.6716 53.828 20.5182C52.2002 19.3649 50.3208 18.6237 48.3487 18.3573C46.3767 18.0909 44.37 18.3072 42.4983 18.9879C40.6267 19.6685 38.9452 20.7935 37.5961 22.2677C36.2469 23.7419 35.2698 25.522 34.7473 27.4573C34.2248 29.3927 34.1724 31.4264 34.5944 33.3865C35.0164 35.3466 35.9005 37.1754 37.1719 38.7183V52.8446C37.1707 53.3512 37.302 53.8491 37.5525 54.2882C37.803 54.7273 38.1638 55.0921 38.5987 55.3459C39.0336 55.5997 39.5271 55.7334 40.0296 55.7337C40.5321 55.734 41.0258 55.6008 41.4609 55.3476L46.7031 52.321L51.9572 55.3476C52.3921 55.5978 52.8845 55.7286 53.3852 55.7268C53.886 55.725 54.3775 55.5907 54.8105 55.3372C55.2436 55.0838 55.603 54.7202 55.8529 54.2828C56.1028 53.8453 56.2343 53.3494 56.2344 52.8446V38.7183C58.0844 36.4805 59.0964 33.659 59.0938 30.746ZM46.7031 24.0203C48.0227 24.0203 49.3126 24.4147 50.4098 25.1538C51.507 25.8928 52.3622 26.9432 52.8671 28.1722C53.3721 29.4011 53.5042 30.7534 53.2468 32.0581C52.9894 33.3627 52.3539 34.5611 51.4209 35.5018C50.4878 36.4424 49.299 37.0829 48.0047 37.3424C46.7105 37.6019 45.369 37.4687 44.1499 36.9597C42.9308 36.4506 41.8888 35.5886 41.1557 34.4826C40.4226 33.3765 40.0312 32.0762 40.0312 30.746C40.0312 28.9622 40.7342 27.2515 41.9854 25.9902C43.2366 24.7289 44.9336 24.0203 46.7031 24.0203ZM48.1328 46.4985C47.701 46.2499 47.2123 46.1192 46.715 46.1192C46.2178 46.1192 45.7291 46.2499 45.2973 46.4985L42.8906 47.8772V42.6288C45.3687 43.4391 48.0375 43.4391 50.5156 42.6288V47.8772L48.1328 46.4985ZM33.3594 46.119C33.3594 46.8834 33.0581 47.6166 32.5219 48.1571C31.9856 48.6977 31.2584 49.0014 30.5 49.0014H9.53125C8.26733 49.0014 7.05517 48.4953 6.16144 47.5943C5.26772 46.6934 4.76562 45.4715 4.76562 44.1973V13.4514C4.76562 12.1773 5.26772 10.9553 6.16144 10.0544C7.05517 9.15345 8.26733 8.64731 9.53125 8.64731H51.4688C52.7327 8.64731 53.9448 9.15345 54.8386 10.0544C55.7323 10.9553 56.2344 12.1773 56.2344 13.4514C56.2354 14.1321 55.9974 14.7912 55.5625 15.312C55.1276 15.8327 54.5239 16.1815 53.8584 16.2966C53.1929 16.4117 52.5084 16.2856 51.9262 15.9407C51.344 15.5958 50.9017 15.0543 50.6777 14.4122H10.4844V43.2365H30.5C31.2584 43.2365 31.9856 43.5402 32.5219 44.0808C33.0581 44.6213 33.3594 45.3545 33.3594 46.119ZM30.5 33.6284C30.5 34.3929 30.1987 35.126 29.6625 35.6666C29.1263 36.2072 28.399 36.5108 27.6406 36.5108H18.1094C17.351 36.5108 16.6237 36.2072 16.0875 35.6666C15.5513 35.126 15.25 34.3929 15.25 33.6284C15.25 32.8639 15.5513 32.1308 16.0875 31.5902C16.6237 31.0497 17.351 30.746 18.1094 30.746H27.6406C28.399 30.746 29.1263 31.0497 29.6625 31.5902C30.1987 32.1308 30.5 32.8639 30.5 33.6284ZM30.5 24.0203C30.5 24.7848 30.1987 25.5179 29.6625 26.0585C29.1263 26.599 28.399 26.9027 27.6406 26.9027H18.1094C17.351 26.9027 16.6237 26.599 16.0875 26.0585C15.5513 25.5179 15.25 24.7848 15.25 24.0203C15.25 23.2558 15.5513 22.5227 16.0875 21.9821C16.6237 21.4415 17.351 21.1379 18.1094 21.1379H27.6406C28.399 21.1379 29.1263 21.4415 29.6625 21.9821C30.1987 22.5227 30.5 23.2558 30.5 24.0203Z" fill="#1F66FF"/>
</svg>
