<svg width="80" height="80" viewBox="0 0 61 61" fill="none" xmlns="http://www.w3.org/2000/svg">
<g clip-path="url(#clip0_1_20693)">
<path d="M28.7158 5.57895C29.7187 5.20368 30.8146 5.15476 31.8471 5.43916L32.2843 5.57895L50.0759 12.2508C50.978 12.5891 51.7654 13.1768 52.3464 13.9454C52.9273 14.714 53.2779 15.6318 53.3572 16.592L53.375 17.0114V30.6423C53.3749 34.7609 52.2629 38.8031 50.1562 42.3421C48.0496 45.8812 45.0266 48.7858 41.4063 50.7495L40.7302 51.1027L32.2055 55.3651C31.7361 55.5995 31.2234 55.7344 30.6994 55.7616C30.1755 55.7887 29.6516 55.7074 29.1605 55.5227L28.7945 55.3651L20.2698 51.1027C16.5859 49.2608 13.4677 46.4583 11.2443 42.9913C9.02097 39.5243 7.77491 35.5212 7.63771 31.4048L7.625 30.6423V17.0114C7.62501 16.0484 7.89855 15.1053 8.41376 14.2917C8.92898 13.4782 9.66467 12.8277 10.5352 12.416L10.9241 12.2508L28.7158 5.57895ZM30.5 10.3395L12.7083 17.0114V30.6423C12.7084 33.8321 13.566 36.9633 15.1914 39.7079C16.8168 42.4525 19.1502 44.7097 21.9473 46.2431L22.5446 46.5557L30.5 50.5334L38.4554 46.5557C41.309 45.1292 43.7266 42.9616 45.4548 40.28C47.1831 37.5984 48.1585 34.5014 48.279 31.3133L48.2917 30.6423V17.0114L30.5 10.3395ZM39.2255 21.932C39.6829 21.4762 40.2967 21.2115 40.9421 21.1918C41.5876 21.1721 42.2164 21.3988 42.7007 21.8259C43.1851 22.253 43.4887 22.8484 43.5499 23.4913C43.6112 24.1341 43.4254 24.7762 43.0304 25.287L42.8195 25.526L29.5164 38.8316C29.0318 39.3161 28.3862 39.6058 27.7021 39.6456C27.018 39.6854 26.3431 39.4726 25.8055 39.0476L25.5615 38.8316L19.4514 32.7214C18.9907 32.2651 18.7218 31.6499 18.6998 31.0019C18.6779 30.3538 18.9044 29.7218 19.3331 29.2353C19.7618 28.7488 20.3602 28.4445 21.0059 28.3848C21.6516 28.3251 22.2957 28.5144 22.8064 28.914L23.0453 29.125L27.539 33.6186L39.2255 21.932Z" fill="#1F66FF"/>
</g>
<defs>
<clipPath id="clip0_1_20693">
<rect width="61" height="61" fill="white"/>
</clipPath>
</defs>
</svg>
