<svg width="22" height="22" viewBox="0 0 22 22" fill="none" xmlns="http://www.w3.org/2000/svg">
<path d="M10.3565 2.01209C10.7182 1.87675 11.1135 1.85911 11.4858 1.96168L11.6435 2.01209L18.0602 4.41834C18.3855 4.54034 18.6695 4.75229 18.879 5.02949C19.0885 5.30669 19.215 5.63772 19.2436 5.98401L19.25 6.13526V11.0513C19.25 12.5367 18.8489 13.9946 18.0891 15.2709C17.3294 16.5473 16.2391 17.5949 14.9334 18.3031L14.6896 18.4305L11.6151 19.9678C11.4458 20.0523 11.2609 20.101 11.0719 20.1107C10.883 20.1205 10.694 20.0912 10.5169 20.0246L10.3849 19.9678L7.31042 18.4305C5.98181 17.7662 4.85721 16.7555 4.05534 15.5051C3.25346 14.2547 2.80407 12.811 2.75458 11.3263L2.75 11.0513V6.13526C2.75001 5.78796 2.84866 5.44781 3.03447 5.1544C3.22029 4.86099 3.48562 4.6264 3.79958 4.47793L3.93983 4.41834L10.3565 2.01209ZM11 3.72901L4.58333 6.13526V11.0513C4.58336 12.2018 4.89267 13.331 5.47888 14.3209C6.06509 15.3108 6.90664 16.1248 7.91542 16.6778L8.13083 16.7906L11 18.2252L13.8692 16.7906C14.8983 16.2761 15.7702 15.4944 16.3935 14.5272C17.0169 13.5601 17.3687 12.4431 17.4121 11.2933L17.4167 11.0513V6.13526L11 3.72901ZM14.1469 7.90993C14.3119 7.74553 14.5332 7.65008 14.766 7.64297C14.9988 7.63586 15.2256 7.71763 15.4003 7.87166C15.5749 8.02569 15.6844 8.24043 15.7065 8.47228C15.7286 8.70413 15.6616 8.93569 15.5192 9.11993L15.4431 9.20609L10.6453 14.0048C10.4705 14.1796 10.2376 14.2841 9.99091 14.2984C9.74419 14.3128 9.50078 14.236 9.30692 14.0828L9.21892 14.0048L7.01525 11.8012C6.8491 11.6366 6.75214 11.4147 6.74421 11.181C6.73628 10.9473 6.81798 10.7194 6.97259 10.5439C7.12721 10.3684 7.34304 10.2587 7.57591 10.2372C7.80877 10.2156 8.04107 10.2839 8.22525 10.428L8.31142 10.5041L9.93208 12.1248L14.1469 7.90993Z" fill="white"/>
</svg>
