<svg width="48" height="54" viewBox="0 0 48 54" fill="none" xmlns="http://www.w3.org/2000/svg">
<path d="M24 10.9999C22.5333 10.9999 21.2773 10.4773 20.232 9.43192C19.1867 8.38659 18.6649 7.13148 18.6667 5.66659C18.6667 4.19992 19.1893 2.94392 20.2347 1.89859C21.28 0.853256 22.5351 0.331479 24 0.333256C25.4667 0.333256 26.7227 0.855923 27.768 1.90126C28.8133 2.94659 29.3351 4.2017 29.3333 5.66659C29.3333 7.13326 28.8107 8.38926 27.7653 9.43459C26.72 10.4799 25.4649 11.0017 24 10.9999ZM45.3333 16.9999C43.2 17.4888 41 17.9004 38.7333 18.2346C36.4667 18.5688 34.2222 18.8239 32 18.9999V51.0666C32 51.8221 31.744 52.4444 31.232 52.9333C30.72 53.4221 30.0871 53.6666 29.3333 53.6666C28.5778 53.6666 27.944 53.4106 27.432 52.8986C26.92 52.3866 26.6649 51.7537 26.6667 50.9999V37.6666H21.3333V51.0666C21.3333 51.8221 21.0773 52.4444 20.5653 52.9333C20.0533 53.4221 19.4204 53.6666 18.6667 53.6666C17.9111 53.6666 17.2773 53.4106 16.7653 52.8986C16.2533 52.3866 15.9982 51.7537 16 50.9999V18.9999C13.7778 18.8221 11.5333 18.5661 9.26665 18.2319C6.99999 17.8977 4.79999 17.487 2.66666 16.9999C1.9111 16.8221 1.33332 16.4106 0.933322 15.7653C0.533321 15.1199 0.444433 14.4204 0.666655 13.6666C0.844433 12.911 1.25599 12.3439 1.90132 11.9653C2.54666 11.5866 3.24621 11.487 3.99999 11.6666C7.19999 12.3777 10.5004 12.8888 13.9013 13.1999C17.3022 13.511 20.6684 13.6666 24 13.6666C27.3333 13.6666 30.7004 13.511 34.1013 13.1999C37.5022 12.8888 40.8018 12.3777 44 11.6666C44.7555 11.4888 45.4444 11.5893 46.0667 11.9679C46.6889 12.3466 47.1111 12.9128 47.3333 13.6666C47.5111 14.4221 47.4107 15.1226 47.032 15.7679C46.6533 16.4133 46.0871 16.8239 45.3333 16.9999Z" fill="#1F66FF"/>
</svg>
