<svg width="12" height="12" viewBox="0 0 32 32" fill="none" xmlns="http://www.w3.org/2000/svg">
<path d="M14.4165 23.75H17.5832V14.25H14.4165V23.75ZM15.9998 11.0833C16.4484 11.0833 16.8248 10.9313 17.1288 10.6273C17.4328 10.3233 17.5842 9.94756 17.5832 9.5C17.5832 9.05139 17.4312 8.67508 17.1272 8.37108C16.8232 8.06708 16.4474 7.91561 15.9998 7.91667C15.5512 7.91667 15.1749 8.06867 14.8709 8.37267C14.5669 8.67667 14.4154 9.05244 14.4165 9.5C14.4165 9.94861 14.5685 10.3249 14.8725 10.6289C15.1765 10.9329 15.5523 11.0844 15.9998 11.0833ZM15.9998 31.6667C13.8096 31.6667 11.7512 31.2508 9.82484 30.419C7.89845 29.5872 6.22275 28.4594 4.79775 27.0354C3.37275 25.6104 2.24489 23.9347 1.41417 22.0083C0.583449 20.0819 0.167559 18.0236 0.166504 15.8333C0.166504 13.6431 0.582393 11.5847 1.41417 9.65833C2.24595 7.73195 3.37381 6.05625 4.79775 4.63125C6.22275 3.20625 7.89845 2.07839 9.82484 1.24767C11.7512 0.416945 13.8096 0.00105556 15.9998 0C18.1901 0 20.2484 0.415889 22.1748 1.24767C24.1012 2.07944 25.7769 3.20731 27.2019 4.63125C28.6269 6.05625 29.7553 7.73195 30.5871 9.65833C31.4189 11.5847 31.8342 13.6431 31.8332 15.8333C31.8332 18.0236 31.4173 20.0819 30.5855 22.0083C29.7537 23.9347 28.6259 25.6104 27.2019 27.0354C25.7769 28.4604 24.1012 29.5888 22.1748 30.4206C20.2484 31.2524 18.1901 31.6677 15.9998 31.6667Z" fill="#1F66FF"/>
</svg>
