<svg width="44" height="51" viewBox="0 0 44 51" fill="none" xmlns="http://www.w3.org/2000/svg">
<path d="M10.0349 35.559C9.25328 36.3364 7.98992 36.3347 7.21037 35.5551L6.17288 34.5177C5.39183 33.7366 5.39183 32.4703 6.17288 31.6892L19.8962 17.9659C20.6772 17.1849 21.9436 17.1849 22.7246 17.9659L36.4479 31.6892C37.229 32.4703 37.229 33.7366 36.4479 34.5177L35.4104 35.5551C34.6309 36.3347 33.3675 36.3364 32.5858 35.559L22.7207 25.7475C21.9406 24.9716 20.6802 24.9716 19.9 25.7475L10.0349 35.559ZM10.0349 19.0073C9.25328 19.7847 7.98992 19.783 7.21037 19.0034L6.17288 17.9659C5.39183 17.1849 5.39183 15.9186 6.17288 15.1375L19.8962 1.41421C20.6772 0.633166 21.9436 0.633165 22.7246 1.41421L36.4479 15.1375C37.229 15.9186 37.229 17.1849 36.4479 17.9659L35.4104 19.0034C34.6309 19.783 33.3675 19.7847 32.5858 19.0073L22.7207 9.19579C21.9406 8.41988 20.6802 8.41987 19.9 9.19579L10.0349 19.0073Z" fill="#1F66FF"/>
<path d="M2 48.2759H42" stroke="#1F66FF" stroke-width="4" stroke-linecap="round"/>
</svg>
