<svg width="53" height="56" viewBox="0 0 53 56" fill="none" xmlns="http://www.w3.org/2000/svg">
<path d="M50.2668 0C49.2686 0 48.4843 0.801212 48.4843 1.81818C48.4843 2.83515 49.2686 3.63636 50.2668 3.63636C51.265 3.63636 52.0493 2.83515 52.0493 1.81818C52.0493 0.801212 51.265 0 50.2668 0ZM51.0987 6.12485L41.3661 8.60606L51.0987 11.0909V6.12485ZM49.1973 12.8485V48.2424H51.3363V13.3939L49.1973 12.8485ZM30.4215 19.3939V24.9697H35.8879V19.3939H30.4215ZM22.8161 27.1515V32.7273H28.2825V27.1515H22.8161ZM30.4215 27.1515V32.7273H35.8879V27.1515H30.4215ZM15.2108 34.9091V40.4849H20.6771V34.9091H15.2108ZM22.8161 34.9091V40.4849H28.2825V34.9091H22.8161ZM30.4215 34.9091V40.4849H35.8879V34.9091H30.4215ZM7.60538 42.6667V48.2424H13.0717V42.6667H7.60538ZM15.2108 42.6667V48.2424H20.6771V42.6667H15.2108ZM22.8161 42.6667V48.2424H28.2825V42.6667H22.8161ZM30.4215 42.6667V48.2424H35.8879V42.6667H30.4215ZM0 50.4242V56H5.46637V50.4242H0ZM7.60538 50.4242V56H13.0717V50.4242H7.60538ZM15.2108 50.4242V56H20.6771V50.4242H15.2108ZM22.8161 50.4242V56H28.2825V50.4242H22.8161ZM30.4215 50.4242V56H35.8879V50.4242H30.4215ZM47.5336 50.4242V56H53V50.4242H47.5336Z" fill="#1F66FF"/>
</svg>
