<svg width="35" height="40" viewBox="0 0 35 40" fill="none" xmlns="http://www.w3.org/2000/svg">
<rect width="35" height="40" fill="#1F66FF"/>
<path d="M27.5938 19.9063C27.5943 19.1887 27.4219 18.4815 27.0914 17.8446C26.7608 17.2077 26.2817 16.6597 25.6946 16.2471C25.1076 15.8344 24.4297 15.5693 23.7185 15.474C23.0073 15.3786 22.2835 15.456 21.6085 15.6995C20.9335 15.9431 20.3271 16.3456 19.8405 16.873C19.3539 17.4004 19.0015 18.0373 18.8131 18.7297C18.6246 19.4221 18.6057 20.1497 18.7579 20.851C18.9101 21.5522 19.229 22.2065 19.6875 22.7585V27.8125C19.6871 27.9937 19.7344 28.1719 19.8248 28.329C19.9151 28.4861 20.0453 28.6166 20.2021 28.7074C20.3589 28.7982 20.5369 28.846 20.7182 28.8461C20.8994 28.8462 21.0774 28.7986 21.2344 28.708L23.125 27.6252L25.0199 28.708C25.1768 28.7975 25.3544 28.8443 25.5349 28.8437C25.7155 28.843 25.8928 28.795 26.049 28.7043C26.2052 28.6136 26.3348 28.4835 26.4249 28.327C26.515 28.1705 26.5625 27.9931 26.5625 27.8125V22.7585C27.2297 21.9579 27.5947 20.9484 27.5938 19.9063ZM23.125 17.5C23.6009 17.5 24.0661 17.6411 24.4618 17.9055C24.8575 18.1699 25.166 18.5457 25.3481 18.9854C25.5302 19.4251 25.5779 19.9089 25.485 20.3757C25.3922 20.8425 25.163 21.2712 24.8265 21.6077C24.49 21.9442 24.0612 22.1734 23.5944 22.2663C23.1277 22.3591 22.6439 22.3115 22.2042 22.1293C21.7645 21.9472 21.3887 21.6388 21.1243 21.2431C20.8599 20.8474 20.7188 20.3822 20.7188 19.9063C20.7188 19.2681 20.9723 18.656 21.4235 18.2048C21.8748 17.7535 22.4868 17.5 23.125 17.5ZM23.6406 25.542C23.4849 25.4531 23.3086 25.4063 23.1293 25.4063C22.95 25.4063 22.7737 25.4531 22.618 25.542L21.75 26.0353V24.1576C22.6437 24.4475 23.6063 24.4475 24.5 24.1576V26.0353L23.6406 25.542ZM18.3125 25.4063C18.3125 25.6798 18.2038 25.9421 18.0105 26.1355C17.8171 26.3289 17.5548 26.4375 17.2812 26.4375H9.71875C9.26291 26.4375 8.82574 26.2564 8.50341 25.9341C8.18108 25.6118 8 25.1746 8 24.7188V13.7188C8 13.2629 8.18108 12.8257 8.50341 12.5034C8.82574 12.1811 9.26291 12 9.71875 12H24.8438C25.2996 12 25.7368 12.1811 26.0591 12.5034C26.3814 12.8257 26.5625 13.2629 26.5625 13.7188C26.5629 13.9623 26.477 14.1981 26.3202 14.3844C26.1633 14.5707 25.9456 14.6955 25.7056 14.7367C25.4656 14.7779 25.2187 14.7328 25.0087 14.6094C24.7988 14.486 24.6393 14.2922 24.5584 14.0625H10.0625V24.375H17.2812C17.5548 24.375 17.8171 24.4837 18.0105 24.677C18.2038 24.8704 18.3125 25.1327 18.3125 25.4063ZM17.2812 20.9375C17.2812 21.211 17.1726 21.4733 16.9792 21.6667C16.7858 21.8601 16.5235 21.9688 16.25 21.9688H12.8125C12.539 21.9688 12.2767 21.8601 12.0833 21.6667C11.8899 21.4733 11.7812 21.211 11.7812 20.9375C11.7812 20.664 11.8899 20.4017 12.0833 20.2083C12.2767 20.0149 12.539 19.9063 12.8125 19.9063H16.25C16.5235 19.9063 16.7858 20.0149 16.9792 20.2083C17.1726 20.4017 17.2812 20.664 17.2812 20.9375ZM17.2812 17.5C17.2812 17.7735 17.1726 18.0358 16.9792 18.2292C16.7858 18.4226 16.5235 18.5313 16.25 18.5313H12.8125C12.539 18.5313 12.2767 18.4226 12.0833 18.2292C11.8899 18.0358 11.7812 17.7735 11.7812 17.5C11.7812 17.2265 11.8899 16.9642 12.0833 16.7708C12.2767 16.5774 12.539 16.4688 12.8125 16.4688H16.25C16.5235 16.4688 16.7858 16.5774 16.9792 16.7708C17.1726 16.9642 17.2812 17.2265 17.2812 17.5Z" fill="white"/>
</svg>
