<svg width="16" height="16" viewBox="0 0 16 16" fill="none" xmlns="http://www.w3.org/2000/svg">
<path d="M1.33331 11.3333C1.33331 12.4667 2.19998 13.3333 3.33331 13.3333H12.6666C13.8 13.3333 14.6666 12.4667 14.6666 11.3333V6H1.33331V11.3333ZM12.6666 1.33333H11.3333V0.666667C11.3333 0.266667 11.0666 0 10.6666 0C10.2666 0 9.99998 0.266667 9.99998 0.666667V1.33333H5.99998V0.666667C5.99998 0.266667 5.73331 0 5.33331 0C4.93331 0 4.66665 0.266667 4.66665 0.666667V1.33333H3.33331C2.19998 1.33333 1.33331 2.2 1.33331 3.33333V4.66667H14.6666V3.33333C14.6666 2.2 13.8 1.33333 12.6666 1.33333Z" fill="#1F66FF"/>
</svg>
