<svg width="150" height="50" viewBox="0 0 192 32" fill="none" xmlns="http://www.w3.org/2000/svg">
<g clip-path="url(#clip0_14_213)">
<path d="M49.82 10.62C48.7237 9.72863 47.3422 9.2634 45.93 9.30999H40.36V24.37H43.87V19.28H46.87C47.1893 19.2814 47.5079 19.2479 47.82 19.18H48C49.071 18.8474 49.9845 18.1365 50.57 17.18C51.1355 16.3573 51.4293 15.3781 51.41 14.38C51.4553 13.6728 51.3353 12.9648 51.0593 12.3121C50.7833 11.6595 50.3589 11.0801 49.82 10.62ZM47.82 14.3C47.8394 14.5382 47.8035 14.7777 47.715 14.9998C47.6266 15.2218 47.4879 15.4204 47.31 15.58C46.8352 15.9159 46.2608 16.0815 45.68 16.05H43.86V12.53H45.72C46.3001 12.4902 46.8752 12.6606 47.34 13.01C47.5217 13.1696 47.6641 13.3691 47.7561 13.5929C47.848 13.8167 47.887 14.0587 47.87 14.3H47.82ZM175.4 10.62C174.3 9.72874 172.915 9.26369 171.5 9.30999H165.93V24.37H169.44V19.28H172.44C172.776 19.2851 173.112 19.2516 173.44 19.18H173.63C174.697 18.8444 175.606 18.134 176.19 17.18C176.756 16.3573 177.049 15.3781 177.03 14.38C177.069 13.6697 176.942 12.9602 176.659 12.3075C176.376 11.6549 175.945 11.0771 175.4 10.62ZM173.4 14.3C173.42 14.5392 173.383 14.7797 173.293 15.002C173.202 15.2244 173.061 15.4224 172.88 15.58C172.41 15.9174 171.838 16.0833 171.26 16.05H169.4V12.53H171.26C171.837 12.489 172.41 12.6596 172.87 13.01C173.054 13.1682 173.197 13.3674 173.289 13.5916C173.381 13.8157 173.419 14.0584 173.4 14.3ZM69.24 11C67.7781 9.56656 65.8124 8.76361 63.765 8.76361C61.7176 8.76361 59.7519 9.56656 58.29 11C56.8878 12.514 56.1089 14.5015 56.1089 16.565C56.1089 18.6285 56.8878 20.616 58.29 22.13C59.7652 23.5572 61.7374 24.3551 63.79 24.3551C65.8426 24.3551 67.8148 23.5572 69.29 22.13C70.6878 20.6138 71.4639 18.6272 71.4639 16.565C71.4639 14.5028 70.6878 12.5161 69.29 11H69.24ZM66.7 19.81C66.3155 20.1952 65.8587 20.5008 65.356 20.7093C64.8532 20.9178 64.3143 21.0252 63.77 21.0252C63.2257 21.0252 62.6868 20.9178 62.184 20.7093C61.6812 20.5008 61.2245 20.1952 60.84 19.81C60.0983 18.9027 59.6932 17.7669 59.6932 16.595C59.6932 15.4231 60.0983 14.2873 60.84 13.38C61.2186 12.9924 61.6702 12.6835 62.1687 12.4711C62.6672 12.2587 63.2027 12.147 63.7446 12.1423C64.2864 12.1377 64.8238 12.2402 65.3259 12.444C65.8279 12.6479 66.2847 12.949 66.67 13.33V13.38C67.417 14.2849 67.8256 15.4216 67.8256 16.595C67.8256 17.7684 67.417 18.9051 66.67 19.81H66.7ZM158.94 11C157.479 9.56956 155.515 8.76851 153.47 8.76851C151.425 8.76851 149.461 9.56956 148 11C146.598 12.514 145.819 14.5015 145.819 16.565C145.819 18.6285 146.598 20.616 148 22.13C149.474 23.5595 151.447 24.359 153.5 24.359C155.553 24.359 157.526 23.5595 159 22.13C160.402 20.616 161.181 18.6285 161.181 16.565C161.181 14.5015 160.402 12.514 159 11H158.94ZM156.4 19.77C156.016 20.1549 155.56 20.4603 155.059 20.6687C154.557 20.877 154.018 20.9843 153.475 20.9843C152.932 20.9843 152.393 20.877 151.891 20.6687C151.39 20.4603 150.934 20.1549 150.55 19.77C149.808 18.8627 149.403 17.7269 149.403 16.555C149.403 15.3831 149.808 14.2473 150.55 13.34C150.929 12.9524 151.38 12.6435 151.879 12.4311C152.377 12.2187 152.913 12.107 153.455 12.1023C153.996 12.0977 154.534 12.2002 155.036 12.404C155.538 12.6079 155.995 12.909 156.38 13.29L156.43 13.34C157.186 14.2406 157.601 15.379 157.601 16.555C157.601 17.731 157.186 18.8693 156.43 19.77H156.4ZM190.92 9.30999H181.67V24.37H185.2V12.56H189.85L190.02 12.3L191.41 10.21L192 9.30999H190.92ZM142.11 9.30999H129.74V12.56H134.45V24.37H138V12.56H142.71V9.30999H142.11ZM87 20.44L86.67 20.28L86.38 20.51C85.6877 21.0304 84.8351 21.2922 83.97 21.25C83.3788 21.2771 82.7886 21.1798 82.2374 20.9645C81.6862 20.7492 81.1863 20.4206 80.77 20C80.353 19.5572 80.0293 19.0352 79.818 18.4648C79.6067 17.8945 79.5122 17.2876 79.54 16.68C79.5117 16.0814 79.6062 15.4834 79.8177 14.9227C80.0292 14.3621 80.3533 13.8507 80.77 13.42C81.1837 13.005 81.6791 12.6805 82.2248 12.4671C82.7704 12.2536 83.3545 12.1559 83.94 12.18C84.4583 12.1867 84.9694 12.3026 85.44 12.52C85.9557 12.754 86.4159 13.0949 86.79 13.52L87.14 13.94L87.57 13.61L89.18 12.4L89.67 12.03L89.28 11.57C88.6394 10.7613 87.8227 10.1094 86.8922 9.66407C85.9616 9.21871 84.9416 8.99158 83.91 8.99999C82.8647 8.99249 81.8272 9.17898 80.85 9.54999C79.9113 9.9032 79.0564 10.4481 78.34 11.15C77.6064 11.8487 77.0332 12.6982 76.66 13.64C76.2764 14.5933 76.0828 15.6124 76.09 16.64C76.0867 17.6654 76.2731 18.6825 76.64 19.64C77.0034 20.5706 77.5471 21.4202 78.24 22.14C78.9484 22.8495 79.801 23.3986 80.74 23.75C81.7531 24.1142 82.8234 24.2938 83.9 24.28C84.7799 24.3217 85.6595 24.1895 86.4883 23.891C87.317 23.5924 88.0788 23.1333 88.73 22.54C88.854 22.4239 88.9709 22.3003 89.08 22.17L89.57 21.6L88.89 21.27L87 20.44ZM107.34 13.65C106.957 12.7184 106.386 11.8756 105.664 11.1737C104.941 10.4718 104.082 9.92597 103.14 9.56999C102.181 9.20876 101.165 9.02248 100.14 9.01999C99.1074 9.01203 98.0867 9.24037 97.1559 9.68755C96.2252 10.1347 95.409 10.7889 94.77 11.6L94.38 12.07L94.87 12.43L96.47 13.64L96.91 13.97L97.26 13.56C97.6312 13.136 98.0879 12.7952 98.6 12.56C99.07 12.3422 99.5819 12.2295 100.1 12.23C100.687 12.2007 101.273 12.295 101.821 12.5069C102.369 12.7188 102.866 13.0435 103.28 13.46L103.6 13.82C103.618 13.8677 103.649 13.9093 103.69 13.94C104.062 14.4644 104.312 15.0659 104.42 15.7H98.55L99.16 16.6L100.23 18.19L100.4 18.44H104.2C103.997 19.0445 103.654 19.5926 103.2 20.04C102.785 20.4621 102.285 20.7917 101.734 21.0071C101.182 21.2226 100.591 21.319 100 21.29C99.1376 21.335 98.2873 21.0728 97.6 20.55L97.31 20.32L96.98 20.48L95.07 21.41L94.39 21.74L94.88 22.31C95 22.45 95.12 22.56 95.23 22.68C95.8811 23.2733 96.6429 23.7324 97.4717 24.031C98.3005 24.3295 99.18 24.4617 100.06 24.42C101.137 24.4353 102.207 24.2557 103.22 23.89C104.157 23.5413 105.007 22.9918 105.71 22.28C106.409 21.5633 106.957 20.7131 107.32 19.78C107.687 18.8225 107.873 17.8054 107.87 16.78C107.9 15.712 107.72 14.6486 107.34 13.65ZM126.3 23.58L120.58 9.68999L120.44 9.32999H117.17L117.03 9.68999L111.35 23.58L111.02 24.38H115.02L115.16 24.01L118.85 14.88L122.51 24L122.66 24.37H126.66L126.3 23.58Z" fill="black"/>
<path d="M14.41 17.59H0C0.0979373 18.6348 0.302331 19.6668 0.61 20.67H9.15L3.59 26.23C4.23986 27.0296 4.97039 27.7601 5.77 28.41L11.33 22.85V31.39C12.3332 31.6977 13.3652 31.9021 14.41 32V17.59ZM31.91 17.59H17.5V32C18.5448 31.9021 19.5768 31.6977 20.58 31.39V20.67H28C27.3941 22.2352 26.4908 23.6682 25.34 24.89V29C28.1654 26.944 30.2437 24.0232 31.26 20.68V20.62C31.32 20.43 31.37 20.23 31.42 20.03C31.4234 19.9767 31.4234 19.9233 31.42 19.87C31.48 19.65 31.52 19.44 31.57 19.23V19.05C31.57 18.87 31.64 18.69 31.67 18.5C31.6657 18.4468 31.6657 18.3932 31.67 18.34C31.67 18.17 31.72 18 31.74 17.83C31.7894 17.7451 31.8463 17.6647 31.91 17.59ZM16 -8.8197e-07C11.9899 -0.0155999 8.12014 1.47521 5.15699 4.17723C2.19384 6.87926 0.353363 10.5955 0 14.59H10.9L12.62 11.52H3.83C4.09826 10.7812 4.43296 10.0683 4.83 9.39H13.83L15.55 6.31H7.41C9.7691 4.22694 12.8079 3.07735 15.955 3.07735C19.1021 3.07735 22.1409 4.22694 24.5 6.31H16.38L18.1 9.39H27.1C27.4967 10.0685 27.8314 10.7814 28.1 11.52H19.3L21 14.59H31.9C31.5481 10.6127 29.7219 6.91062 26.7799 4.21103C23.8379 1.51144 19.9929 0.00942097 16 -8.8197e-07Z" fill="#0450F2"/>
</g>
<defs>
<clipPath id="clip0_14_213">
<rect width="192" height="32" fill="white"/>
</clipPath>
</defs>
</svg>
