<svg width="90" height="75" viewBox="0 0 54 48" fill="none" xmlns="http://www.w3.org/2000/svg">
<path d="M29.3438 2.95908C31.994 1.07365 35.0683 0.130933 38.5401 0.130933C40.4482 0.130933 42.5419 0.628478 44.8211 1.67594C47.1003 2.69722 48.9024 3.9018 50.2276 5.28969C52.9573 8.64157 54.0969 12.5434 53.6993 16.9951C53.2753 21.4468 51.7912 24.9296 49.2205 27.3912L29.1053 47.2668C28.6018 47.7643 27.9657 48 27.2236 48C26.4816 48 25.872 47.7643 25.3685 47.2668C25.1237 47.0282 24.9315 46.7422 24.8038 46.4268C24.6761 46.1114 24.6157 45.7733 24.6264 45.4337C24.6264 44.7005 24.865 44.072 25.3685 43.5745L37.533 31.5548C38.1956 30.9787 38.1956 30.3764 37.533 29.7218C36.8704 29.0671 36.2609 29.0671 35.6778 29.7218L23.5133 41.7414C23.2681 41.9855 22.9742 42.1767 22.6503 42.3029C22.3264 42.4291 21.9796 42.4876 21.6317 42.4746C20.8896 42.4746 20.2801 42.239 19.7765 41.7414C19.5318 41.5028 19.3395 41.2169 19.2118 40.9014C19.0841 40.586 19.0237 40.2479 19.0345 39.9083C19.0345 39.1751 19.273 38.5466 19.7765 38.0491L31.941 26.0295C32.6566 25.3748 32.6566 24.7201 31.941 24.0655C31.3315 23.4108 30.7484 23.4108 30.0859 24.0655L17.9214 36.216C17.6733 36.4564 17.379 36.6451 17.0558 36.7711C16.7326 36.897 16.3871 36.9576 16.0397 36.9493C15.2977 36.9493 14.6616 36.7136 14.1051 36.216C13.575 35.7185 13.31 35.1162 13.31 34.383C13.31 33.6498 13.6015 32.9951 14.1846 32.419L26.3756 20.3732C27.0381 19.7185 27.0381 19.1162 26.3756 18.5401C25.713 17.964 25.077 17.964 24.4939 18.5401L12.1969 30.6121C11.6139 31.1358 11.0043 31.4239 10.3418 31.4239C9.59969 31.4239 8.96364 31.162 8.4866 30.6121C7.98306 30.0884 7.71803 29.4599 7.71803 28.7267C7.71803 27.9935 7.98306 27.3912 8.4866 26.8936C16.5963 18.8282 21.6052 13.9574 23.5133 12.1506L32.9481 21.3682C33.9817 22.3372 35.1743 22.8347 36.6319 22.8347C38.4871 22.8347 39.9447 22.1015 41.0313 20.635C41.7734 19.5614 42.0384 18.383 41.8264 17.0737C41.6143 15.7643 41.0578 14.6645 40.1567 13.748L29.3438 2.95908ZM34.8033 19.5352L23.5133 8.35352L4.74979 26.8936C2.5236 24.6678 1.2515 21.2635 0.959975 16.6285C0.668451 12.0196 1.94056 8.01309 4.74979 4.66121C7.90355 1.5712 11.6669 0 16.0397 0C20.4391 0 24.1759 1.5712 27.2236 4.66121L38.5401 15.8429C39.0436 16.3404 39.2821 16.9427 39.2821 17.6759C39.2821 18.4092 39.0436 19.0376 38.5401 19.5352C38.0365 20.0065 37.427 20.2684 36.6319 20.2684C35.9164 20.2684 35.3068 20.0065 34.8033 19.5352Z" fill="#1F66FF"/>
</svg>
